<svg width="24" height="24" viewBox="0 0 24 24" fill="none" xmlns="http://www.w3.org/2000/svg">
<path d="M16.4499 4.04982C16.6798 3.82001 16.9526 3.63771 17.2529 3.51334C17.5531 3.38897 17.8749 3.32495 18.1999 3.32495C18.525 3.32495 18.8468 3.38897 19.147 3.51334C19.4473 3.63771 19.7201 3.82001 19.9499 4.04982C20.1798 4.27964 20.3621 4.55247 20.4864 4.85273C20.6108 5.153 20.6748 5.47482 20.6748 5.79982C20.6748 6.12483 20.6108 6.44665 20.4864 6.74692C20.3621 7.04718 20.1798 7.32001 19.9499 7.54982L8.13745 19.3623L3.32495 20.6748L4.63745 15.8623L16.4499 4.04982Z" stroke="currentColor" stroke-width="2" stroke-linecap="round" stroke-linejoin="round"/>
</svg>
