<svg width="24" height="24" viewBox="0 0 28 28" fill="none" xmlns="http://www.w3.org/2000/svg">
<path d="M4.06066 1.93934C3.47487 1.35355 2.52513 1.35355 1.93934 1.93934C1.35355 2.52513 1.35355 3.47487 1.93934 4.06066L4.06066 1.93934ZM23.9393 26.0607C24.5251 26.6464 25.4749 26.6464 26.0607 26.0607C26.6464 25.4749 26.6464 24.5251 26.0607 23.9393L23.9393 26.0607ZM0.93934 8.93934C0.353554 9.52513 0.353554 10.4749 0.93934 11.0607C1.52513 11.6464 2.47487 11.6464 3.06066 11.0607L0.93934 8.93934ZM11.0607 3.06066C11.6464 2.47487 11.6464 1.52513 11.0607 0.93934C10.4749 0.353554 9.52513 0.353554 8.93934 0.93934L11.0607 3.06066ZM0.93934 14.9393C0.353554 15.5251 0.353554 16.4749 0.93934 17.0607C1.52513 17.6464 2.47487 17.6464 3.06066 17.0607L0.93934 14.9393ZM17.0607 3.06066C17.6464 2.47487 17.6464 1.52513 17.0607 0.93934C16.4749 0.353554 15.5251 0.353554 14.9393 0.93934L17.0607 3.06066ZM16.9393 24.9393C16.3536 25.5251 16.3536 26.4749 16.9393 27.0607C17.5251 27.6464 18.4749 27.6464 19.0607 27.0607L16.9393 24.9393ZM27.0607 19.0607C27.6464 18.4749 27.6464 17.5251 27.0607 16.9393C26.4749 16.3536 25.5251 16.3536 24.9393 16.9393L27.0607 19.0607ZM10.9393 24.9393C10.3536 25.5251 10.3536 26.4749 10.9393 27.0607C11.5251 27.6464 12.4749 27.6464 13.0607 27.0607L10.9393 24.9393ZM27.0607 13.0607C27.6464 12.4749 27.6464 11.5251 27.0607 10.9393C26.4749 10.3536 25.5251 10.3536 24.9393 10.9393L27.0607 13.0607ZM1.93934 4.06066L4.93934 7.06066L7.06066 4.93934L4.06066 1.93934L1.93934 4.06066ZM4.93934 7.06066L7.93934 10.0607L10.0607 7.93934L7.06066 4.93934L4.93934 7.06066ZM7.93934 10.0607L17.9393 20.0607L20.0607 17.9393L10.0607 7.93934L7.93934 10.0607ZM17.9393 20.0607L20.9393 23.0607L23.0607 20.9393L20.0607 17.9393L17.9393 20.0607ZM20.9393 23.0607L23.9393 26.0607L26.0607 23.9393L23.0607 20.9393L20.9393 23.0607ZM3.06066 11.0607L7.06066 7.06066L4.93934 4.93934L0.93934 8.93934L3.06066 11.0607ZM7.06066 7.06066L11.0607 3.06066L8.93934 0.93934L4.93934 4.93934L7.06066 7.06066ZM3.06066 17.0607L10.0607 10.0607L7.93934 7.93934L0.93934 14.9393L3.06066 17.0607ZM10.0607 10.0607L17.0607 3.06066L14.9393 0.93934L7.93934 7.93934L10.0607 10.0607ZM19.0607 27.0607L23.0607 23.0607L20.9393 20.9393L16.9393 24.9393L19.0607 27.0607ZM23.0607 23.0607L27.0607 19.0607L24.9393 16.9393L20.9393 20.9393L23.0607 23.0607ZM13.0607 27.0607L20.0607 20.0607L17.9393 17.9393L10.9393 24.9393L13.0607 27.0607ZM20.0607 20.0607L27.0607 13.0607L24.9393 10.9393L17.9393 17.9393L20.0607 20.0607Z" fill="currentColor"/>
</svg>
