<svg width="304" height="304" viewBox="0 0 304 304" fill="none" xmlns="http://www.w3.org/2000/svg">
<rect x="24" y="24" width="256" height="256" rx="128" fill="#0F0E17"/>
<path d="M78 189.222C78 180.999 84.6262 174.333 92.8 174.333C100.974 174.333 107.6 180.999 107.6 189.222V204.111C107.6 212.334 100.974 219 92.8 219C84.6262 219 78 212.334 78 204.111V189.222Z" fill="#FF8906"/>
<path d="M166.8 144.556C166.8 136.333 160.174 129.667 152 129.667C143.826 129.667 137.2 136.333 137.2 144.556V204.111C137.2 212.334 143.826 219 152 219C160.174 219 166.8 212.334 166.8 204.111V144.556Z" fill="#FF8906"/>
<path d="M226 99.8889C226 91.666 219.374 85 211.2 85C203.026 85 196.4 91.666 196.4 99.8889V204.111C196.4 212.334 203.026 219 211.2 219C219.374 219 226 212.334 226 204.111V99.8889Z" fill="#FF8906"/>
</svg>
