<svg width="26" height="26" viewBox="0 0 26 26" fill="none" xmlns="http://www.w3.org/2000/svg">
<path d="M21.125 16.25H16.25V14.625H21.125V16.25ZM24.375 22.75H19.5V21.125H24.375V22.75ZM22.75 19.5H17.875V17.875H22.75V19.5Z" fill="#FFFFFE"/>
<path d="M13.8149 16.25C13.8092 15.5644 13.6264 14.892 13.2841 14.2979C12.9419 13.7038 12.4519 13.2083 11.8617 12.8594L17.875 2.4375L16.4694 1.625L10.3131 12.2899C9.55752 12.1211 8.77172 12.1444 8.02752 12.3578C7.28333 12.5711 6.6045 12.9676 6.05313 13.5111C3.01113 16.445 3.24676 23.3041 3.25813 23.595C3.26653 23.8048 3.35583 24.0032 3.5073 24.1486C3.65877 24.294 3.86066 24.3752 4.07063 24.375H16.2508C16.4213 24.375 16.5876 24.3213 16.7259 24.2216C16.8642 24.1219 16.9677 23.9812 17.0216 23.8194C17.0756 23.6577 17.0772 23.483 17.0264 23.3202C16.9755 23.1575 16.8747 23.0148 16.7383 22.9125C13.8621 20.7545 13.8149 16.2939 13.8149 16.25ZM9.69313 13.8101C10.3434 13.8172 10.9659 14.0748 11.4311 14.5293C11.8963 14.9837 12.1684 15.6 12.1908 16.25C12.1908 16.2809 12.1924 16.419 12.2046 16.6311L7.41082 14.4991C7.72659 14.2387 8.09098 14.0437 8.48279 13.9254C8.87461 13.8071 9.28603 13.7679 9.69313 13.8101ZM12.5531 22.75C11.9037 22.0887 11.4897 21.2322 11.375 20.3125H9.75001C9.8082 21.1772 10.0783 22.0143 10.5365 22.75H8.73032C8.39618 21.6956 8.19288 20.604 8.12501 19.5H6.50001C6.5524 20.6007 6.73375 21.6915 7.04032 22.75H4.87501C4.90019 21.2582 5.11063 17.9627 6.33994 15.8007L12.4605 18.5226C12.7546 20.0495 13.3815 21.4929 14.2968 22.75H12.5531Z" fill="#FFFFFE"/>
</svg>
