<svg width="215" height="177" viewBox="0 0 215 177" fill="none" xmlns="http://www.w3.org/2000/svg">
<path d="M7.81982 81.3783V83.1961" stroke="#D2D8DF" stroke-width="2.921" stroke-linecap="round"/>
<path d="M3.7373 82.3631L5.22272 83.8922" stroke="#D2D8DF" stroke-width="2.921" stroke-linecap="round"/>
<path d="M2 86.4338H4.10036" stroke="#D2D8DF" stroke-width="2.921" stroke-linecap="round"/>
<path d="M3.56738 90.5765L5.0528 89.0474" stroke="#D2D8DF" stroke-width="2.921" stroke-linecap="round"/>
<path d="M7.81982 91.0734V89.2556" stroke="#D2D8DF" stroke-width="2.921" stroke-linecap="round"/>
<path d="M10.8496 89.8613L9.6377 88.6494" stroke="#D2D8DF" stroke-width="2.921" stroke-linecap="round"/>
<path d="M13.2734 86.8317H11.4556" stroke="#D2D8DF" stroke-width="2.921" stroke-linecap="round"/>
<path d="M12.0615 82.5902L10.8496 83.8021" stroke="#D2D8DF" stroke-width="2.921" stroke-linecap="round"/>
<path d="M105.376 2V3.21188" stroke="#D2D8DF" stroke-width="2.921" stroke-linecap="round"/>
<path d="M101.741 5.63574H102.953" stroke="#D2D8DF" stroke-width="2.921" stroke-linecap="round"/>
<path d="M105.376 9.27145V8.05957" stroke="#D2D8DF" stroke-width="2.921" stroke-linecap="round"/>
<path d="M108.406 5.63574H107.194" stroke="#D2D8DF" stroke-width="2.921" stroke-linecap="round"/>
<path d="M35.0869 52.8991V54.7169" stroke="#D2D8DF" stroke-width="2.921" stroke-linecap="round"/>
<path d="M29.6338 58.3526H31.4516" stroke="#D2D8DF" stroke-width="2.921" stroke-linecap="round"/>
<path d="M35.0869 63.2V61.3822" stroke="#D2D8DF" stroke-width="2.921" stroke-linecap="round"/>
<path d="M39.9345 58.3526H38.1167" stroke="#D2D8DF" stroke-width="2.921" stroke-linecap="round"/>
<path d="M165.518 118.971C166.966 118.971 168.141 120.145 168.141 121.594C168.141 123.043 166.966 124.217 165.518 124.217C164.07 124.217 162.896 123.043 162.896 121.594" stroke="#D2D8DF" stroke-width="2.921" stroke-linecap="round"/>
<path fill-rule="evenodd" clip-rule="evenodd" d="M177.521 95.1718C179.078 94.6861 181.465 92.7817 182.017 90.7328C182.518 92.544 184.618 94.6861 186.514 94.8482C184.38 95.6035 182.341 97.8475 182.017 99.6104C181.797 97.8135 178.976 95.4337 177.521 95.1718Z" fill="#EBECEE"/>
<path fill-rule="evenodd" clip-rule="evenodd" d="M17.6802 118.163C18.459 117.92 19.6519 116.968 19.9282 115.943C20.1787 116.848 21.2286 117.92 22.1762 118.001C21.1098 118.378 20.0902 119.5 19.9282 120.382C19.8181 119.483 18.4076 118.293 17.6802 118.163Z" fill="#EBECEE"/>
<path fill-rule="evenodd" clip-rule="evenodd" d="M32.1334 33.8709C32.1334 34.9947 31.2229 35.9049 30.0999 35.9049C28.9764 35.9049 28.0664 34.9947 28.0664 33.8709C28.0664 32.7476 28.9764 31.8369 30.0999 31.8369C31.2229 31.8369 32.1334 32.7476 32.1334 33.8709Z" fill="#D1D8DF"/>
<path fill-rule="evenodd" clip-rule="evenodd" d="M167.921 39.3325C167.921 41.2101 166.399 42.7322 164.522 42.7322C162.645 42.7322 161.123 41.2101 161.123 39.3325C161.123 37.4549 162.645 35.9329 164.522 35.9329C166.399 35.9329 167.921 37.4549 167.921 39.3325Z" fill="#EBECEE"/>
<path fill-rule="evenodd" clip-rule="evenodd" d="M215 30.1219C215 31.6115 213.793 32.8187 212.304 32.8187C210.815 32.8187 209.608 31.6115 209.608 30.1219C209.608 28.6323 210.815 27.4251 212.304 27.4251C213.793 27.4251 215 28.6323 215 30.1219Z" fill="#EBECEE"/>
<path fill-rule="evenodd" clip-rule="evenodd" d="M70.137 156.071C70.137 157.011 69.3762 157.772 68.4374 157.772C67.4991 157.772 66.7383 157.011 66.7383 156.071C66.7383 155.132 67.4991 154.371 68.4374 154.371C69.3762 154.371 70.137 155.132 70.137 156.071Z" stroke="#D2D8DF" stroke-width="2.921" stroke-linecap="round"/>
<path fill-rule="evenodd" clip-rule="evenodd" d="M69.1261 20.8036C69.1261 21.9273 68.2156 22.8376 67.0926 22.8376C65.9696 22.8376 65.0591 21.9273 65.0591 20.8036C65.0591 19.6803 65.9696 18.7695 67.0926 18.7695C68.2156 18.7695 69.1261 19.6803 69.1261 20.8036Z" stroke="#D2D8DF" stroke-width="2.921" stroke-linecap="round"/>
<path fill-rule="evenodd" clip-rule="evenodd" d="M120.997 174.897C119.697 175.391 118.243 174.738 117.749 173.439C117.254 172.139 117.907 170.684 119.207 170.19C120.506 169.696 121.96 170.348 122.454 171.648C122.949 172.948 122.296 174.402 120.997 174.897Z" stroke="#D2D8DF" stroke-width="2.921" stroke-linecap="round"/>
<path fill-rule="evenodd" clip-rule="evenodd" d="M120.223 126.824H70.5326C67.0352 126.824 64.1724 123.952 64.1724 120.443V49.583C64.1724 46.0738 67.0352 43.204 70.5326 43.204H120.223C123.721 43.204 126.584 46.0738 126.584 49.583V120.443C126.584 123.952 123.721 126.824 120.223 126.824Z" fill="#E0E2EE"/>
<path fill-rule="evenodd" clip-rule="evenodd" d="M115.981 129.853H66.2909C62.7935 129.853 59.9307 126.982 59.9307 123.473V52.6126C59.9307 49.1034 62.7935 46.2336 66.2909 46.2336H115.981C119.48 46.2336 122.343 49.1034 122.343 52.6126V123.473C122.343 126.982 119.48 129.853 115.981 129.853Z" fill="#E8EBF2"/>
<path fill-rule="evenodd" clip-rule="evenodd" d="M111.855 132.245H62.0624C58.5577 132.245 55.689 129.386 55.689 125.891V55.3241C55.689 51.8294 58.5577 48.9715 62.0624 48.9715H111.855C115.361 48.9715 118.23 51.8294 118.23 55.3241V125.891C118.23 129.386 115.361 132.245 111.855 132.245Z" fill="#D8DBEA"/>
<path fill-rule="evenodd" clip-rule="evenodd" d="M111.855 132.245H62.0624C58.5577 132.245 55.689 129.386 55.689 125.891V55.3241C55.689 51.8294 58.5577 48.9715 62.0624 48.9715H111.855C115.361 48.9715 118.23 51.8294 118.23 55.3241V125.891C118.23 129.386 115.361 132.245 111.855 132.245Z" fill="#F1F2F7"/>
<path fill-rule="evenodd" clip-rule="evenodd" d="M104.678 70.4711H67.8998C66.8495 70.4711 65.9897 69.6532 65.9897 68.654C65.9897 67.6534 66.8495 66.8355 67.8998 66.8355H104.678C105.728 66.8355 106.588 67.6534 106.588 68.654C106.588 69.6532 105.728 70.4711 104.678 70.4711Z" fill="#E0E2EE"/>
<path fill-rule="evenodd" clip-rule="evenodd" d="M104.678 81.378H67.8998C66.8495 81.378 65.9897 80.5601 65.9897 79.5609C65.9897 78.5603 66.8495 77.7424 67.8998 77.7424H104.678C105.728 77.7424 106.588 78.5603 106.588 79.5609C106.588 80.5601 105.728 81.378 104.678 81.378Z" fill="#E0E2EE"/>
<path fill-rule="evenodd" clip-rule="evenodd" d="M104.678 92.2849H67.8998C66.8495 92.2849 65.9897 91.467 65.9897 90.4678C65.9897 89.4686 66.8495 88.6493 67.8998 88.6493H104.678C105.728 88.6493 106.588 89.4686 106.588 90.4678C106.588 91.467 105.728 92.2849 104.678 92.2849Z" fill="#E0E2EE"/>
<path fill-rule="evenodd" clip-rule="evenodd" d="M104.678 103.192H67.8998C66.8495 103.192 65.9897 102.374 65.9897 101.375C65.9897 100.374 66.8495 99.5562 67.8998 99.5562H104.678C105.728 99.5562 106.588 100.374 106.588 101.375C106.588 102.374 105.728 103.192 104.678 103.192Z" fill="#E0E2EE"/>
<path fill-rule="evenodd" clip-rule="evenodd" d="M87.0973 114.099H67.908C66.8532 114.099 65.9897 113.281 65.9897 112.282C65.9897 111.281 66.8532 110.463 67.908 110.463H87.0973C88.1521 110.463 89.0155 111.281 89.0155 112.282C89.0155 113.281 88.1521 114.099 87.0973 114.099Z" fill="#E0E2EE"/>
<path fill-rule="evenodd" clip-rule="evenodd" d="M125.83 100.003C118.475 107.356 107.09 108.185 98.8248 102.508C97.7685 101.77 96.7631 100.94 95.8255 100.003C95.3429 99.5219 94.888 99.0254 94.4593 98.5028C93.6019 97.459 92.8509 96.3458 92.2356 95.1956C91.1515 93.2529 90.4144 91.1915 90.0119 89.0608C88.7135 82.3786 90.655 75.1861 95.8255 70.0179C101.008 64.8344 108.202 62.9056 114.885 64.1915C117.015 64.6062 119.078 65.3432 121.021 66.4148C122.173 67.0438 123.271 67.7947 124.317 68.6519C124.838 69.079 125.335 69.5354 125.816 70.0179C126.755 70.9554 127.597 71.9591 128.321 73.0168C134.001 81.2793 133.17 92.664 125.83 100.003Z" fill="white" fill-opacity="0.1"/>
<path fill-rule="evenodd" clip-rule="evenodd" d="M123.771 98.5547C116.121 106.207 103.722 106.206 96.0691 98.5547C88.4267 90.9123 88.4267 78.5118 96.0791 70.8609C103.722 63.2184 116.121 63.2184 123.763 70.8609C131.414 78.5118 131.414 90.9123 123.771 98.5547ZM127.698 66.9298C117.877 57.1092 101.963 57.1092 92.1426 66.9298C82.3234 76.7491 82.3148 92.6732 92.1341 102.494C101.072 111.429 115.081 112.235 124.935 104.899C125.897 104.181 126.824 103.377 127.708 102.494C128.591 101.61 129.395 100.683 130.111 99.7205C137.448 89.8657 136.635 75.8664 127.698 66.9298Z" fill="#E0E2EE"/>
<path fill-rule="evenodd" clip-rule="evenodd" d="M166.347 139.513L165.934 139.926C163.207 142.655 158.74 142.655 156.011 139.926L130.825 114.74L141.161 104.404L166.347 129.59C169.076 132.319 169.076 136.784 166.347 139.513Z" fill="url(#paint0_linear_827_6413)"/>
<path fill-rule="evenodd" clip-rule="evenodd" d="M130.654 98.9506L138.097 106.393L132.813 111.675L125.372 104.233C126.354 103.501 127.298 102.68 128.202 101.779C129.103 100.878 129.924 99.9327 130.654 98.9506Z" fill="#E0E2EE"/>
<path fill-rule="evenodd" clip-rule="evenodd" d="M165.97 129.28L155.7 139.549L153.851 137.698L164.12 127.43L165.97 129.28Z" fill="#EF545F"/>
<path fill-rule="evenodd" clip-rule="evenodd" d="M141.732 104.76L131.181 115.311L129.613 113.743L140.164 103.192L141.732 104.76Z" fill="url(#paint1_linear_827_6413)"/>
<path fill-rule="evenodd" clip-rule="evenodd" d="M118.706 68.2286L92.8305 94.1031C91.856 92.3566 91.1934 90.5034 90.833 88.5878L113.191 66.2299C115.105 66.6041 116.96 67.2653 118.706 68.2286Z" fill="white" fill-opacity="0.5"/>
<path fill-rule="evenodd" clip-rule="evenodd" d="M127.19 74.3787L99.215 100.768C98.2132 100.109 97.2597 99.3666 96.3705 98.5278C95.9127 98.0959 95.4798 97.653 95.0747 97.1853L123.39 70.4714C123.886 70.855 124.357 71.2634 124.813 71.6952C125.702 72.5341 126.502 73.4323 127.19 74.3787Z" fill="white" fill-opacity="0.5"/>
<defs>
<linearGradient id="paint0_linear_827_6413" x1="149.609" y1="85.6199" x2="112.041" y2="123.188" gradientUnits="userSpaceOnUse">
<stop stop-color="#FF8960"/>
<stop offset="1" stop-color="#FF62A5"/>
</linearGradient>
<linearGradient id="paint1_linear_827_6413" x1="135.673" y1="97.1327" x2="123.554" y2="109.252" gradientUnits="userSpaceOnUse">
<stop stop-color="#FF404E"/>
<stop offset="1" stop-color="#FF62A5"/>
</linearGradient>
</defs>
</svg>
