<svg width="248" height="185" viewBox="0 0 248 185" fill="none" xmlns="http://www.w3.org/2000/svg">
<path d="M247.899 162.281H0.101074V162.405H247.899V162.281Z" fill="#EBEBEB"/>
<path d="M223.07 170.258H215.685V170.382H223.07V170.258Z" fill="#EBEBEB"/>
<path d="M164.252 171.603H159.944V171.727H164.252V171.603Z" fill="#EBEBEB"/>
<path d="M213.592 165.656H196.647V165.78H213.592V165.656Z" fill="#EBEBEB"/>
<path d="M54.4331 168.213H33.0271V168.337H54.4331V168.213Z" fill="#EBEBEB"/>
<path d="M66.5662 168.213H58.8462V168.337H66.5662V168.213Z" fill="#EBEBEB"/>
<path d="M126.356 166.55H79.9312V166.674H126.356V166.55Z" fill="#EBEBEB"/>
<path d="M117.564 140.178H21.8637C21.1136 140.177 20.3945 139.879 19.8641 139.349C19.3338 138.818 19.0355 138.099 19.0347 137.349V2.828C19.0357 2.07812 19.3342 1.35927 19.8645 0.829121C20.3948 0.298968 21.1138 0.000793618 21.8637 0H117.564C118.313 0.00105816 119.032 0.299348 119.562 0.829472C120.092 1.3596 120.391 2.07829 120.392 2.828V137.347C120.391 138.097 120.093 138.817 119.563 139.347C119.033 139.878 118.314 140.177 117.564 140.178ZM21.8647 0.124001C21.1492 0.126111 20.4637 0.411253 19.9578 0.917145C19.4519 1.42304 19.1668 2.10857 19.1647 2.824V137.347C19.1668 138.062 19.4519 138.748 19.9578 139.254C20.4637 139.76 21.1492 140.045 21.8647 140.047H117.565C118.28 140.045 118.966 139.76 119.472 139.254C119.977 138.748 120.263 138.062 120.265 137.347V2.828C120.263 2.11256 119.977 1.42703 119.472 0.921143C118.966 0.415251 118.28 0.130113 117.565 0.128002L21.8647 0.124001Z" fill="#EBEBEB"/>
<path d="M224.76 140.178H129.06C128.31 140.177 127.591 139.879 127.061 139.348C126.531 138.818 126.233 138.099 126.232 137.349V2.828C126.233 2.07821 126.531 1.35936 127.061 0.829182C127.592 0.299001 128.31 0.000794128 129.06 0H224.76C225.51 0.000793618 226.229 0.298968 226.759 0.829121C227.29 1.35927 227.588 2.07812 227.589 2.828V137.347C227.589 138.097 227.291 138.817 226.76 139.348C226.23 139.879 225.511 140.177 224.76 140.178ZM129.06 0.124001C128.345 0.126111 127.659 0.411253 127.153 0.917145C126.647 1.42304 126.362 2.10857 126.36 2.824V137.347C126.362 138.062 126.647 138.748 127.153 139.254C127.659 139.76 128.345 140.045 129.06 140.047H224.76C225.476 140.046 226.163 139.762 226.67 139.256C227.177 138.75 227.463 138.063 227.465 137.347V2.828C227.463 2.1117 227.177 1.42542 226.67 0.919384C226.163 0.41335 225.476 0.128793 224.76 0.128002L129.06 0.124001Z" fill="#EBEBEB"/>
<path d="M106.394 162.279H115.623L115.623 98.9073H106.394V162.279Z" fill="#E6E6E6"/>
<path d="M109.643 162.279H106.394V150.239H113.049L109.643 162.279Z" fill="#F0F0F0"/>
<path d="M203.989 162.279H213.218V98.9073H203.989V162.279Z" fill="#E6E6E6"/>
<path d="M106.395 158.992H206.824V98.9072L106.395 98.9072L106.395 158.992Z" fill="#F0F0F0"/>
<path d="M203.579 162.279H206.828V150.239H200.169L203.579 162.279Z" fill="#F0F0F0"/>
<path d="M173.714 103.882V153.586H203.485V103.882H173.714Z" fill="#E6E6E6"/>
<path d="M185.655 105.63H191.545C194.038 105.655 196.45 104.749 198.309 103.088H178.892C180.751 104.748 183.163 105.655 185.655 105.63Z" fill="#F0F0F0"/>
<path d="M141.723 103.882V153.586H171.494V103.882H141.723Z" fill="#E6E6E6"/>
<path d="M153.363 105.63H159.253C161.745 105.655 164.157 104.748 166.016 103.088H146.599C148.458 104.749 150.87 105.655 153.363 105.63Z" fill="#F0F0F0"/>
<path d="M109.733 103.882V153.586H139.504V103.882H109.733Z" fill="#E6E6E6"/>
<path d="M121.373 105.63H127.263C129.756 105.655 132.168 104.749 134.027 103.088H114.609C116.468 104.749 118.88 105.655 121.373 105.63Z" fill="#F0F0F0"/>
<path d="M34.7824 162.279H97.7524L97.7524 20.7273H34.7824L34.7824 162.279Z" fill="#F0F0F0"/>
<path d="M34.7823 162.279H96.4233L96.4233 20.7273H34.7823L34.7823 162.279Z" fill="#F5F5F5"/>
<path d="M92.6675 159.067L92.6675 23.9395L38.5385 23.9395L38.5385 159.067H92.6675Z" fill="#EAECF0"/>
<path d="M87.3489 49.0705C87.3489 47.1326 86.9672 45.2136 86.2256 43.4232C85.484 41.6328 84.397 40.006 83.0267 38.6357C81.6563 37.2654 80.0295 36.1784 78.2391 35.4368C76.4487 34.6952 74.5298 34.3135 72.5919 34.3135H58.6159C54.7021 34.3135 50.9486 35.8683 48.1811 38.6357C45.4136 41.4032 43.8589 45.1567 43.8589 49.0705H87.3489Z" fill="#FAFAFA"/>
<path d="M87.3491 150.669V118.387H43.8591V150.669H87.3491Z" fill="#F5F5F5"/>
<path d="M87.3485 58.1729H68.1655V114.222H87.3485V58.1729Z" fill="#F5F5F5"/>
<path d="M63.0419 58.1729H43.8589V114.222H63.0419V58.1729Z" fill="#F5F5F5"/>
<path d="M50.8158 85.9449H42.9587C42.6357 85.9441 42.3261 85.8154 42.0977 85.5869C41.8692 85.3585 41.7405 85.0489 41.7397 84.7259C41.7408 84.4029 41.8696 84.0934 42.098 83.8651C42.3263 83.6367 42.6358 83.5079 42.9587 83.5069H50.8158C51.1387 83.5079 51.4482 83.6367 51.6765 83.8651C51.9049 84.0934 52.0337 84.4029 52.0348 84.7259C52.034 85.0489 51.9053 85.3585 51.6768 85.5869C51.4484 85.8154 51.1388 85.9441 50.8158 85.9449Z" fill="#E0E0E0"/>
<path d="M39.5142 159.067L39.5142 23.9395H38.5402L38.5402 159.067H39.5142Z" fill="#F0F0F0"/>
<path d="M137.583 83.3711L204.362 83.3711V20.7271L137.583 20.7271V83.3711Z" fill="#E6E6E6"/>
<path d="M135.9 83.3711L202.679 83.3711V20.7271L135.9 20.7271V83.3711Z" fill="#F5F5F5"/>
<path d="M132.001 86.9971L204.362 86.9971V83.3711L132.001 83.3711V86.9971Z" fill="#E6E6E6"/>
<path d="M130.106 86.9971L198.74 86.9971V83.3711L130.106 83.3711V86.9971Z" fill="#F5F5F5"/>
<path d="M199.657 80.1133V23.9863L138.921 23.9863V80.1133H199.657Z" fill="white"/>
<path d="M170.972 80.1133V23.9863H167.605V80.1133H170.972Z" fill="#F5F5F5"/>
<path d="M140.194 80.1133V23.9863H138.921V80.1133H140.194Z" fill="#E6E6E6"/>
<path d="M172.245 80.1133V23.9863H170.972V80.1133H172.245Z" fill="#E6E6E6"/>
<path d="M146.56 85.0323C145.332 72.3073 144.477 51.6583 145.141 44.7523C145.152 44.6336 145.189 44.5187 145.248 44.4153C145.308 44.3118 145.388 44.2222 145.485 44.1523C145.613 44.0583 145.765 44.0023 145.924 43.9906C146.083 43.979 146.242 44.0122 146.382 44.0864C146.523 44.1606 146.64 44.2729 146.72 44.4104C146.8 44.548 146.84 44.7052 146.835 44.8643C146.718 48.2863 146.583 56.8393 147.312 71.5943C147.675 78.9393 148.198 83.9693 147.839 85.0303L146.56 85.0323Z" fill="#E6E6E6"/>
<path d="M141.982 55.7033C138.482 51.8203 131.343 49.0593 124.065 49.0733C121.208 49.0793 132.758 53.5903 137.565 58.5733C141.406 62.7113 144.569 67.4314 146.934 72.5583C146.006 64.9533 145.479 59.5843 141.982 55.7033Z" fill="#E6E6E6"/>
<path d="M148.913 56.8857C151.813 52.8417 158.52 49.7317 165.773 49.3797C168.62 49.2417 157.787 54.3167 153.744 59.5187C150.519 63.8666 148.068 68.7379 146.497 73.9187C146.285 66.3057 146.009 60.9307 148.913 56.8857Z" fill="#E6E6E6"/>
<path d="M141.826 41.5213C138.865 38.2333 132.817 35.8953 126.654 35.9073C124.235 35.9073 134.015 39.7333 138.082 43.9483C141.335 47.4521 144.013 51.4489 146.016 55.7903C145.234 49.3563 144.785 44.8093 141.826 41.5213Z" fill="#E6E6E6"/>
<path d="M147.695 46.3847C150.154 42.9597 155.831 40.3267 161.972 40.0287C164.383 39.9117 155.21 44.2087 151.786 48.6137C149.054 52.2972 146.978 56.4244 145.649 60.8137C145.471 54.3617 145.236 49.8077 147.695 46.3847Z" fill="#E6E6E6"/>
<path d="M147.055 98.9073C145.209 98.9073 143.434 98.2015 142.092 96.9346C140.75 95.6677 139.944 93.9356 139.838 92.0933L139.2 81.0303H154.91L154.272 92.0933C154.166 93.9356 153.359 95.6677 152.017 96.9346C150.676 98.2015 148.9 98.9073 147.055 98.9073Z" fill="#E6E6E6"/>
<path d="M155.926 83.5453H138.185L137.677 78.9453H156.438L155.926 83.5453Z" fill="#E6E6E6"/>
<path d="M124 184.664C177.069 184.664 220.091 182.152 220.091 179.052C220.091 175.953 177.069 173.44 124 173.44C70.9301 173.44 27.9087 175.953 27.9087 179.052C27.9087 182.152 70.9301 184.664 124 184.664Z" fill="#F5F5F5"/>
<path d="M125.939 173.689L121.801 174.155L120.275 164.771L124.413 164.305L125.939 173.689Z" fill="#FFC3BD"/>
<path d="M144.465 174.593H140.333L139.304 165.024H143.436L144.465 174.593Z" fill="#FFC3BD"/>
<path d="M139.993 174.112H145.03C145.112 174.112 145.192 174.14 145.256 174.192C145.32 174.243 145.364 174.314 145.382 174.394L146.198 178.067C146.218 178.157 146.216 178.249 146.195 178.338C146.173 178.427 146.131 178.51 146.073 178.581C146.015 178.651 145.942 178.708 145.859 178.746C145.776 178.785 145.685 178.804 145.593 178.802C143.972 178.774 142.793 178.679 140.749 178.679C139.493 178.679 135.705 178.809 133.971 178.809C132.271 178.809 132.01 177.094 132.72 176.939C135.904 176.239 138.303 175.282 139.32 174.366C139.505 174.201 139.745 174.111 139.993 174.112Z" fill="#263238"/>
<path d="M121.734 173.446L126.218 172.938C126.299 172.928 126.381 172.947 126.451 172.991C126.52 173.034 126.573 173.1 126.6 173.178L127.825 176.735C127.855 176.821 127.866 176.913 127.856 177.004C127.846 177.095 127.815 177.182 127.766 177.259C127.717 177.336 127.651 177.401 127.573 177.449C127.495 177.497 127.408 177.526 127.317 177.535C125.697 177.691 123.349 177.861 121.317 178.092C118.94 178.362 118.544 178.998 115.74 178.933C114.04 178.893 113.614 177.168 114.327 177.033C117.575 176.402 118.203 175.911 120.784 173.885C121.053 173.653 121.382 173.501 121.734 173.446Z" fill="#263238"/>
<path d="M125.383 53.1775C123.995 54.3235 122.629 55.3195 121.216 56.3395C119.803 57.3595 118.36 58.3065 116.875 59.2255C115.39 60.1445 113.866 61.0255 112.268 61.8255C110.635 62.6718 108.934 63.3815 107.183 63.9475C106.72 64.0955 106.269 64.2175 105.749 64.3475C105.241 64.4577 104.727 64.5402 104.209 64.5945C103.278 64.6945 102.402 64.7395 101.529 64.7795C99.7894 64.8595 98.0824 64.8575 96.3774 64.8455C92.9674 64.8045 89.5864 64.6405 86.1904 64.3405L86.1394 61.2405C89.4744 60.8115 92.8244 60.4405 96.1394 60.0675C97.7964 59.8875 99.4494 59.6855 101.064 59.4745C101.864 59.3655 102.664 59.2375 103.402 59.1005C103.72 59.0445 104.033 58.9707 104.342 58.8795C104.633 58.7795 104.99 58.6655 105.32 58.5325C106.738 57.9571 108.113 57.2841 109.437 56.5185C110.808 55.7315 112.18 54.8865 113.528 53.9885C114.876 53.0905 116.218 52.1605 117.548 51.2115C118.878 50.2625 120.207 49.2575 121.455 48.3115L125.383 53.1775Z" fill="#FFC3BD"/>
<path d="M129.422 49.6453C128.828 53.5513 120.604 59.5263 120.604 59.5263L114.704 52.2033C117.288 49.445 120.029 46.8371 122.912 44.3923C125.567 42.2223 130.068 45.3953 129.422 49.6453Z" fill="#98A2B3"/>
<path d="M87.2776 61.5674L84.9316 59.8974L84.6746 65.1734C85.0292 65.1743 85.3786 65.0884 85.6924 64.9232C86.0062 64.7579 86.2747 64.5184 86.4746 64.2254L87.2776 61.5674Z" fill="#FFC3BD"/>
<path d="M82.8118 58.3613L82.3318 63.5323L84.6758 65.1733L84.9328 59.8973L82.8118 58.3613Z" fill="#FFC3BD"/>
<path opacity="0.2" d="M120.277 164.774L121.063 169.611L125.202 169.145L124.416 164.308L120.277 164.774Z" fill="black"/>
<path opacity="0.2" d="M143.438 165.024H139.304L139.836 169.956H143.97L143.438 165.024Z" fill="black"/>
<path d="M143.498 44.5171C143.805 44.5861 144.096 44.716 144.353 44.8991C144.61 45.0822 144.827 45.3148 144.993 45.5832C145.159 45.8517 145.269 46.1505 145.317 46.4622C145.366 46.7739 145.351 47.0921 145.275 47.3981C144.378 51.1196 143.702 54.8908 143.251 58.6921C142.86 61.8921 142.626 64.9491 142.48 67.7201C142.137 74.2151 142.28 79.1661 142.086 80.8441C138.855 80.6201 126.679 79.7731 120.04 79.3091C117.799 61.7651 120.425 50.5691 121.9 46.0201C122.125 45.3112 122.548 44.6812 123.118 44.2032C123.688 43.7252 124.382 43.4189 125.12 43.3201C125.966 43.2091 126.978 43.1021 128.046 43.0391C128.42 43.0151 128.799 43.0021 129.185 42.9941C132.319 43.0312 135.448 43.2489 138.558 43.6461C139.148 43.7161 139.744 43.8031 140.324 43.8961C141.483 44.0901 142.585 44.3131 143.498 44.5171Z" fill="#D0D5DD"/>
<path d="M138.366 33.033C137.566 36.007 136.588 41.491 138.558 43.651C133.448 47.088 130.186 51.927 129.245 50.876C128.752 50.326 128.538 43.961 129.186 42.997C132.605 42.429 132.692 39.928 132.27 37.544L138.366 33.033Z" fill="#FFC3BD"/>
<path d="M138.162 42.418C138.162 42.418 129.835 46.103 128.731 54.343C131.025 51.687 136.092 48.797 136.092 48.797L133.857 48.155C135.278 47.6156 136.75 47.2196 138.25 46.973C138.002 45.835 139.324 43.565 139.324 43.565L138.162 42.418Z" fill="#98A2B3"/>
<path d="M130.649 42.285C130.649 42.285 131.759 46.991 128.732 54.343C128.135 51.7769 127.317 49.2675 126.286 46.843L128.325 47.398C128.325 47.398 128.225 46.449 126.574 45.187C127.262 44.1877 128.12 43.3168 129.109 42.614L130.649 42.285Z" fill="#98A2B3"/>
<path opacity="0.2" d="M135.881 34.874L132.273 37.542C132.38 38.0972 132.438 38.6607 132.446 39.226C133.746 39.126 135.606 37.843 135.837 36.508C135.951 35.9705 135.965 35.4168 135.881 34.874Z" fill="black"/>
<path d="M127.785 24.4209C125.77 24.5079 124.658 27.9819 126.703 30.8429C128.748 33.7039 130.5 24.3039 127.785 24.4209Z" fill="#263238"/>
<path d="M137.723 27.4778C137.962 31.5718 138.31 33.9548 136.508 36.2878C133.798 39.7968 128.558 38.5388 127.101 34.5988C125.79 31.0528 125.618 24.9538 129.4 22.8588C130.232 22.3924 131.17 22.1465 132.124 22.1445C133.077 22.1425 134.016 22.3844 134.85 22.8472C135.684 23.3101 136.385 23.9785 136.888 24.789C137.391 25.5995 137.678 26.5251 137.723 27.4778Z" fill="#FFC3BD"/>
<path d="M138.323 30.624C137.228 29.9822 136.272 29.1291 135.511 28.1143C134.749 27.0995 134.197 25.9433 133.886 24.713C132.686 24.997 126.705 27.749 124.866 24.713C123.027 21.677 125.341 19.896 128.782 21.765C127.26 19.079 128.644 17.765 133.426 17.649C138.208 17.533 137.565 20.305 137.565 20.305C137.565 20.305 141.185 18.729 142.465 21.505C143.948 24.695 141.212 30.142 138.323 30.624Z" fill="#263238"/>
<path d="M136.747 19.5722C136.791 19.5722 138.558 19.9972 140.594 17.9482C140.229 19.6962 137.067 20.8602 137.067 20.8602L136.747 19.5722Z" fill="#263238"/>
<path d="M139.123 25.5609C137.216 24.9019 134.907 27.7269 135.76 31.1379C136.613 34.5489 141.692 26.4489 139.123 25.5609Z" fill="#263238"/>
<path d="M140.202 30.8833C140.028 31.9 139.457 32.8061 138.616 33.4033C137.495 34.1853 136.485 33.2913 136.416 31.9973C136.358 30.8333 136.87 29.0233 138.177 28.7563C138.464 28.7027 138.76 28.7216 139.037 28.8114C139.315 28.9011 139.566 29.0588 139.767 29.2701C139.968 29.4815 140.114 29.7397 140.19 30.0215C140.266 30.3032 140.27 30.5995 140.202 30.8833Z" fill="#FFC3BD"/>
<path d="M126.253 125.863C127.246 113.777 134.53 80.3195 134.53 80.3195L120.036 79.3085C120.036 79.3085 114.447 112.52 114.019 125.124C113.573 138.229 118.844 167.355 118.844 167.355L125.795 166.564C125.795 166.564 125.256 137.999 126.253 125.863Z" fill="#98A2B3"/>
<path opacity="0.5" d="M126.253 125.863C127.246 113.777 134.53 80.3195 134.53 80.3195L120.036 79.3085C120.036 79.3085 114.447 112.52 114.019 125.124C113.573 138.229 118.844 167.355 118.844 167.355L125.795 166.564C125.795 166.564 125.256 137.999 126.253 125.863Z" fill="white"/>
<path opacity="0.2" d="M129.07 91.6503C126.148 95.3863 126.096 108.507 127.226 118.201C128.303 111.208 130 102.327 131.487 94.9243L129.07 91.6503Z" fill="black"/>
<path d="M127.857 79.8544C127.857 79.8544 129.421 115.229 131.166 127.209C133.076 140.328 137.927 169.001 137.927 169.001H145.495C145.495 169.001 144.25 141.995 143.251 129.106C142.114 114.425 142.083 80.8464 142.083 80.8464L127.857 79.8544Z" fill="#98A2B3"/>
<path opacity="0.5" d="M127.857 79.8544C127.857 79.8544 129.421 115.229 131.166 127.209C133.076 140.328 137.927 169.001 137.927 169.001H145.495C145.495 169.001 144.25 141.995 143.251 129.106C142.114 114.425 142.083 80.8464 142.083 80.8464L127.857 79.8544Z" fill="white"/>
<path d="M137.018 169.162H145.929V166.5L135.968 166.327L137.018 169.162Z" fill="#98A2B3"/>
<path d="M118.541 168.138L126.825 167.199L126.525 164.522L117.248 165.431L118.541 168.138Z" fill="#98A2B3"/>
<path d="M131.695 29.3546C131.735 29.6856 131.595 29.9746 131.375 30.0006C131.155 30.0266 130.951 29.7796 130.912 29.4486C130.873 29.1176 131.012 28.8286 131.232 28.8026C131.452 28.7766 131.656 29.0236 131.695 29.3546Z" fill="#263238"/>
<path d="M127.956 29.8038C127.996 30.1348 127.856 30.4238 127.636 30.4498C127.416 30.4758 127.212 30.2288 127.172 29.8978C127.132 29.5668 127.272 29.2778 127.492 29.2518C127.712 29.2258 127.916 29.4768 127.956 29.8038Z" fill="#263238"/>
<path d="M129.164 29.8261C128.891 30.8848 128.473 31.901 127.924 32.8461C128.169 32.9805 128.441 33.0598 128.72 33.0782C128.999 33.0967 129.279 33.054 129.54 32.9531L129.164 29.8261Z" fill="#ED847E"/>
<path d="M132.711 28.0057C132.676 28.0162 132.639 28.017 132.604 28.008C132.568 27.999 132.536 27.9806 132.511 27.9547C132.345 27.7729 132.139 27.6328 131.909 27.5459C131.679 27.4589 131.432 27.4277 131.188 27.4547C131.137 27.4633 131.085 27.4519 131.042 27.4228C130.999 27.3937 130.969 27.3493 130.959 27.2987C130.954 27.2734 130.954 27.2473 130.959 27.222C130.964 27.1966 130.974 27.1726 130.988 27.1512C131.003 27.1299 131.022 27.1117 131.043 27.0977C131.065 27.0837 131.089 27.0742 131.115 27.0697C131.423 27.0298 131.737 27.0645 132.029 27.171C132.321 27.2775 132.583 27.4527 132.794 27.6817C132.83 27.719 132.849 27.7686 132.849 27.8202C132.849 27.8719 132.83 27.9215 132.794 27.9587C132.77 27.9811 132.742 27.9973 132.711 28.0057Z" fill="#263238"/>
<path d="M131.274 34.273C131.746 34.1737 132.187 33.9623 132.56 33.6567C132.933 33.3511 133.227 32.9601 133.417 32.517C133.426 32.4905 133.425 32.4613 133.412 32.436C133.4 32.4107 133.379 32.3913 133.352 32.382C133.326 32.3727 133.296 32.3743 133.271 32.3865C133.246 32.3987 133.226 32.4205 133.217 32.447C133.035 32.8546 132.76 33.2138 132.413 33.4955C132.067 33.7773 131.659 33.9737 131.223 34.069C131.21 34.0721 131.197 34.0778 131.186 34.0858C131.174 34.0938 131.165 34.1039 131.157 34.1156C131.15 34.1273 131.145 34.1403 131.143 34.154C131.141 34.1676 131.141 34.1815 131.144 34.195C131.147 34.2084 131.153 34.2212 131.161 34.2324C131.169 34.2437 131.179 34.2532 131.191 34.2606C131.202 34.2679 131.215 34.2729 131.229 34.2752C131.243 34.2775 131.257 34.2771 131.27 34.274L131.274 34.273Z" fill="#263238"/>
<path d="M126.196 28.7102C126.156 28.7233 126.114 28.7233 126.075 28.7102C126.026 28.6923 125.987 28.6564 125.964 28.61C125.942 28.5636 125.938 28.5103 125.954 28.4612C126.047 28.1646 126.211 27.895 126.432 27.6753C126.652 27.4556 126.922 27.2923 127.219 27.1992C127.269 27.1878 127.322 27.1963 127.366 27.2227C127.41 27.2492 127.442 27.2916 127.456 27.3412C127.467 27.3913 127.459 27.4438 127.433 27.4879C127.406 27.532 127.364 27.5644 127.315 27.5782C127.081 27.656 126.87 27.7882 126.698 27.9638C126.525 28.1394 126.397 28.3534 126.324 28.5882C126.313 28.617 126.296 28.643 126.274 28.6641C126.252 28.6853 126.225 28.7011 126.196 28.7102Z" fill="#263238"/>
<path d="M138.632 174.834C138.349 174.856 138.067 174.782 137.832 174.623C137.759 174.559 137.702 174.479 137.667 174.389C137.632 174.299 137.62 174.202 137.632 174.106C137.632 174.048 137.647 173.992 137.677 173.943C137.707 173.895 137.749 173.855 137.8 173.829C138.259 173.593 139.59 174.413 139.74 174.507C139.756 174.517 139.769 174.532 139.777 174.55C139.785 174.568 139.788 174.587 139.785 174.607C139.782 174.626 139.773 174.643 139.76 174.658C139.747 174.672 139.73 174.682 139.711 174.687C139.358 174.776 138.996 174.825 138.632 174.834ZM138.018 173.979C137.974 173.977 137.931 173.985 137.891 174.003C137.871 174.014 137.854 174.031 137.843 174.051C137.832 174.071 137.827 174.094 137.829 174.118C137.82 174.183 137.828 174.25 137.851 174.312C137.874 174.374 137.912 174.429 137.962 174.473C138.424 174.683 138.948 174.71 139.429 174.547C138.998 174.267 138.517 174.074 138.013 173.979H138.018Z" fill="#98A2B3"/>
<path d="M139.685 174.689C139.669 174.689 139.652 174.685 139.638 174.677C139.211 174.445 138.384 173.539 138.471 173.077C138.485 173.005 138.524 172.94 138.581 172.893C138.637 172.847 138.708 172.821 138.782 172.82C138.856 172.811 138.932 172.818 139.004 172.839C139.075 172.861 139.142 172.898 139.199 172.946C139.679 173.339 139.778 174.531 139.781 174.581C139.782 174.599 139.779 174.616 139.771 174.632C139.763 174.648 139.752 174.661 139.737 174.671C139.722 174.682 139.704 174.688 139.685 174.689ZM138.851 173.014H138.806C138.679 173.03 138.668 173.088 138.663 173.114C138.611 173.386 139.138 174.07 139.563 174.393C139.535 173.921 139.365 173.468 139.075 173.093C139.012 173.041 138.933 173.013 138.851 173.014Z" fill="#98A2B3"/>
<path d="M121.397 174.057L121.381 174.064C120.734 174.271 119.576 174.564 119.081 174.218C119.008 174.167 118.949 174.099 118.907 174.021C118.866 173.942 118.845 173.854 118.845 173.766C118.841 173.712 118.851 173.658 118.874 173.61C118.897 173.561 118.932 173.519 118.976 173.489C119.441 173.162 121.188 173.805 121.386 173.88C121.403 173.887 121.418 173.899 121.428 173.914C121.439 173.929 121.445 173.947 121.446 173.965C121.448 173.984 121.444 174.002 121.435 174.018C121.426 174.035 121.413 174.048 121.397 174.058V174.057ZM119.114 173.633L119.091 173.647C119.073 173.658 119.059 173.675 119.05 173.695C119.042 173.714 119.038 173.736 119.041 173.758C119.04 173.816 119.053 173.874 119.08 173.927C119.106 173.979 119.145 174.024 119.193 174.058C119.801 174.247 120.457 174.212 121.041 173.958C120.436 173.689 119.773 173.577 119.113 173.633H119.114Z" fill="#98A2B3"/>
<path d="M121.397 174.057C121.374 174.068 121.346 174.071 121.321 174.063C120.801 173.897 119.721 173.12 119.741 172.648C119.746 172.537 119.809 172.392 120.073 172.335C120.169 172.313 120.267 172.312 120.363 172.33C120.459 172.348 120.55 172.386 120.631 172.441C121.055 172.846 121.341 173.374 121.447 173.951C121.451 173.967 121.45 173.985 121.444 174.001C121.439 174.017 121.43 174.032 121.417 174.044C121.411 174.049 121.404 174.053 121.397 174.057ZM120.006 172.567C119.939 172.603 119.937 172.645 119.936 172.661C119.922 172.945 120.668 173.567 121.209 173.813C121.109 173.352 120.87 172.933 120.524 172.613C120.465 172.572 120.398 172.544 120.328 172.53C120.257 172.516 120.184 172.518 120.114 172.534C120.077 172.539 120.041 172.551 120.006 172.567Z" fill="#98A2B3"/>
<path d="M146.983 50.4776C146.878 52.0916 146.688 53.5945 146.491 55.1465C146.294 56.6985 146.029 58.2195 145.738 59.7545C145.163 62.8898 144.312 65.9683 143.197 68.9545L142.706 70.1116L142.582 70.4006L142.551 70.4725L142.5 70.5826L142.356 70.8676C142.166 71.2139 141.938 71.5379 141.675 71.8336C141.244 72.3187 140.74 72.7337 140.181 73.0636C139.729 73.333 139.254 73.5634 138.762 73.7525C137.125 74.3434 135.412 74.7009 133.674 74.8145C130.52 75.0502 127.349 74.9318 124.22 74.4615L124.333 71.3616L126.519 71.1145C127.252 71.0275 127.981 70.9145 128.706 70.8145C130.153 70.6015 131.585 70.3636 132.95 70.0466C134.213 69.7895 135.44 69.3826 136.606 68.8345C136.921 68.7024 137.196 68.4921 137.406 68.2236C137.419 68.1526 137.261 68.4636 137.447 67.9666L137.774 67.0105C138.575 64.2699 139.188 61.4777 139.608 58.6535C139.843 57.2155 140.044 55.7646 140.238 54.3096C140.432 52.8546 140.592 51.3695 140.745 49.9745L146.983 50.4776Z" fill="#FFC3BD"/>
<path d="M147.343 47.4812C149.366 50.8742 147.643 61.5382 147.643 61.5382L137.043 59.5792C137.043 59.5792 136.469 53.4792 138.487 48.7852C140.678 43.6762 144.892 43.3702 147.343 47.4812Z" fill="#98A2B3"/>
<path d="M121.365 80.9522L115.74 54.7882C115.47 53.6709 114.844 52.6717 113.957 51.9412C113.069 51.2107 111.968 50.7885 110.82 50.7382H89.2671C90.4156 50.7883 91.5167 51.2104 92.4044 51.9409C93.292 52.6715 93.9181 53.6708 94.1881 54.7882L99.8131 80.9522C100.083 82.0695 100.709 83.0687 101.596 83.7992C102.484 84.5298 103.585 84.952 104.733 85.0022H126.285C125.137 84.952 124.036 84.5298 123.148 83.7992C122.261 83.0687 121.635 82.0695 121.365 80.9522Z" fill="#263238"/>
<path opacity="0.7" d="M121.365 80.9522L115.74 54.7882C115.47 53.6709 114.844 52.6717 113.957 51.9412C113.069 51.2107 111.968 50.7885 110.82 50.7382H89.2671C90.4156 50.7883 91.5167 51.2104 92.4044 51.9409C93.292 52.6715 93.9181 53.6708 94.1881 54.7882L99.8131 80.9522C100.083 82.0695 100.709 83.0687 101.596 83.7992C102.484 84.5298 103.585 84.952 104.733 85.0022H126.285C125.137 84.952 124.036 84.5298 123.148 83.7992C122.261 83.0687 121.635 82.0695 121.365 80.9522Z" fill="#98A2B3"/>
<path d="M89.2676 50.7382H110.82C109.716 50.7589 108.658 51.1819 107.845 51.9277C107.031 52.6734 106.518 53.6907 106.402 54.7882L100.811 115.588C100.694 116.686 100.181 117.703 99.3673 118.449C98.5538 119.194 97.496 119.617 96.3926 119.638H82.9406C82.4224 119.648 81.9082 119.547 81.4323 119.341C80.9564 119.136 80.5299 118.832 80.1813 118.448C79.8326 118.065 79.57 117.611 79.4108 117.118C79.2517 116.625 79.1998 116.103 79.2586 115.588L84.8506 54.7882C84.9669 53.6909 85.4799 52.6738 86.2933 51.928C87.1066 51.1822 88.1643 50.7591 89.2676 50.7382Z" fill="#98A2B3"/>
<path d="M92.7101 115.587C92.6513 116.102 92.7033 116.623 92.8624 117.117C93.0215 117.61 93.2842 118.063 93.6328 118.447C93.9814 118.83 94.408 119.135 94.8838 119.34C95.3597 119.545 95.874 119.646 96.3921 119.637H74.8401C74.3219 119.647 73.8076 119.546 73.3316 119.34C72.8557 119.135 72.4291 118.831 72.0804 118.447C71.7318 118.064 71.4691 117.61 71.31 117.117C71.151 116.623 71.0992 116.102 71.1581 115.587H92.7101Z" fill="#263238"/>
<path opacity="0.7" d="M92.7101 115.587C92.6513 116.102 92.7033 116.623 92.8624 117.117C93.0215 117.61 93.2842 118.063 93.6328 118.447C93.9814 118.83 94.408 119.135 94.8838 119.34C95.3597 119.545 95.874 119.646 96.3921 119.637H74.8401C74.3219 119.647 73.8076 119.546 73.3316 119.34C72.8557 119.135 72.4291 118.831 72.0804 118.447C71.7318 118.064 71.4691 117.61 71.31 117.117C71.151 116.623 71.0992 116.102 71.1581 115.587H92.7101Z" fill="#98A2B3"/>
<g opacity="0.5">
<path opacity="0.5" d="M102.667 57.5502H88.083C87.9704 57.5517 87.8587 57.5293 87.7554 57.4844C87.6522 57.4394 87.5596 57.3731 87.484 57.2897C87.4083 57.2062 87.3512 57.1077 87.3166 57.0005C87.2819 56.8934 87.2705 56.7801 87.283 56.6682C87.3089 56.4294 87.4208 56.2082 87.5978 56.0459C87.7748 55.8836 88.0049 55.7913 88.245 55.7861H102.827C102.94 55.7846 103.051 55.807 103.155 55.8519C103.258 55.8969 103.35 55.9632 103.426 56.0466C103.502 56.13 103.559 56.2286 103.593 56.3358C103.628 56.4429 103.639 56.5562 103.627 56.6682C103.601 56.9066 103.489 57.1275 103.313 57.2897C103.136 57.452 102.907 57.5445 102.667 57.5502Z" fill="white"/>
<path opacity="0.5" d="M102.232 62.3216H87.6484C87.5358 62.3232 87.4242 62.3007 87.3209 62.2558C87.2176 62.2109 87.1251 62.1446 87.0494 62.0611C86.9737 61.9777 86.9167 61.8792 86.882 61.772C86.8474 61.6648 86.8359 61.5515 86.8484 61.4396C86.8743 61.2009 86.9863 60.9797 87.1633 60.8174C87.3403 60.6551 87.5703 60.5628 87.8104 60.5576H102.394C102.507 60.5561 102.619 60.5785 102.722 60.6234C102.825 60.6683 102.918 60.7347 102.993 60.8181C103.069 60.9015 103.126 61.0001 103.161 61.1072C103.195 61.2144 103.207 61.3277 103.194 61.4396C103.169 61.6785 103.057 61.8998 102.88 62.0621C102.703 62.2244 102.473 62.3167 102.232 62.3216Z" fill="white"/>
<path opacity="0.5" d="M98.2238 67.0921H87.2148C87.1022 67.0937 86.9906 67.0712 86.8873 67.0263C86.784 66.9814 86.6915 66.9151 86.6158 66.8316C86.5401 66.7482 86.4831 66.6497 86.4484 66.5425C86.4138 66.4354 86.4023 66.3221 86.4148 66.2101C86.4407 65.9714 86.5527 65.7502 86.7297 65.5879C86.9067 65.4256 87.1367 65.3333 87.3768 65.3281H98.3858C98.4984 65.3266 98.6101 65.349 98.7134 65.3939C98.8166 65.4388 98.9092 65.5052 98.9848 65.5886C99.0605 65.672 99.1175 65.7706 99.1522 65.8778C99.1868 65.9849 99.1983 66.0982 99.1858 66.2101C99.1599 66.4489 99.048 66.6701 98.871 66.8324C98.6939 66.9946 98.4639 67.087 98.2238 67.0921Z" fill="white"/>
<path opacity="0.5" d="M90.5142 71.8617H86.7812C86.6686 71.8632 86.557 71.8408 86.4537 71.7959C86.3504 71.751 86.2579 71.6846 86.1822 71.6012C86.1065 71.5178 86.0495 71.4192 86.0148 71.3121C85.9802 71.2049 85.9687 71.0916 85.9812 70.9797C86.0069 70.741 86.1186 70.5199 86.2955 70.3575C86.4723 70.1952 86.7022 70.1029 86.9422 70.0977H90.6762C90.7888 70.0961 90.9005 70.1186 91.0038 70.1635C91.107 70.2084 91.1996 70.2748 91.2752 70.3582C91.3509 70.4416 91.4079 70.5401 91.4426 70.6473C91.4773 70.7544 91.4887 70.8677 91.4762 70.9797C91.4503 71.2184 91.3384 71.4396 91.1614 71.6019C90.9843 71.7642 90.7543 71.8565 90.5142 71.8617Z" fill="white"/>
<path opacity="0.5" d="M100.93 76.6331H86.3425C86.2299 76.6347 86.1182 76.6123 86.015 76.5674C85.9117 76.5225 85.8191 76.4561 85.7435 76.3727C85.6678 76.2892 85.6108 76.1907 85.5761 76.0835C85.5415 75.9764 85.53 75.8631 85.5425 75.7512C85.5684 75.5124 85.6803 75.2912 85.8574 75.1289C86.0344 74.9666 86.2644 74.8743 86.5045 74.8692H101.089C101.201 74.8676 101.313 74.89 101.416 74.935C101.519 74.9799 101.612 75.0462 101.688 75.1296C101.763 75.2131 101.82 75.3116 101.855 75.4188C101.89 75.5259 101.901 75.6392 101.889 75.7512C101.863 75.9892 101.751 76.2099 101.575 76.3721C101.399 76.5343 101.17 76.627 100.93 76.6331Z" fill="white"/>
<path opacity="0.5" d="M94.754 81.4037H85.914C85.8014 81.4052 85.6898 81.3828 85.5865 81.3379C85.4832 81.293 85.3907 81.2266 85.315 81.1432C85.2393 81.0598 85.1823 80.9612 85.1476 80.854C85.113 80.7469 85.1015 80.6336 85.114 80.5217C85.1397 80.283 85.2514 80.0618 85.4283 79.8995C85.6051 79.7372 85.835 79.6448 86.075 79.6397H94.915C95.0276 79.6381 95.1393 79.6605 95.2426 79.7055C95.3458 79.7504 95.4384 79.8167 95.514 79.9002C95.5897 79.9836 95.6467 80.0821 95.6814 80.1893C95.7161 80.2964 95.7275 80.4097 95.715 80.5217C95.6891 80.7603 95.5774 80.9813 95.4005 81.1436C95.2237 81.3058 94.994 81.3983 94.754 81.4037Z" fill="white"/>
<path opacity="0.5" d="M100.063 86.1741H85.4795C85.3669 86.1757 85.2552 86.1533 85.1519 86.1084C85.0486 86.0634 84.9561 85.9971 84.8805 85.9136C84.8048 85.8302 84.7477 85.7317 84.7131 85.6245C84.6784 85.5174 84.667 85.4041 84.6795 85.2921C84.7054 85.0534 84.8173 84.8322 84.9943 84.6699C85.1713 84.5076 85.4014 84.4153 85.6415 84.4101H100.226C100.339 84.4086 100.451 84.431 100.554 84.4759C100.657 84.5208 100.75 84.5872 100.825 84.6706C100.901 84.754 100.958 84.8526 100.993 84.9598C101.027 85.0669 101.039 85.1802 101.026 85.2921C101.001 85.5311 100.888 85.7524 100.711 85.9147C100.534 86.077 100.304 86.1692 100.063 86.1741Z" fill="white"/>
<path opacity="0.5" d="M96.0549 90.9447H85.0459C84.9333 90.9462 84.8216 90.9238 84.7183 90.8789C84.615 90.834 84.5225 90.7676 84.4469 90.6842C84.3712 90.6008 84.3141 90.5022 84.2795 90.3951C84.2448 90.2879 84.2334 90.1746 84.2459 90.0627C84.2718 89.8239 84.3837 89.6028 84.5607 89.4405C84.7377 89.2782 84.9678 89.1858 85.2079 89.1807H96.2169C96.3295 89.1791 96.4411 89.2016 96.5444 89.2465C96.6477 89.2914 96.7402 89.3578 96.8159 89.4412C96.8916 89.5246 96.9486 89.6231 96.9832 89.7303C97.0179 89.8375 97.0294 89.9508 97.0169 90.0627C96.9909 90.3014 96.879 90.5226 96.702 90.6849C96.525 90.8472 96.295 90.9395 96.0549 90.9447Z" fill="white"/>
<path opacity="0.5" d="M88.3456 95.7151H84.6096C84.497 95.7167 84.3853 95.6943 84.2821 95.6494C84.1788 95.6045 84.0862 95.5381 84.0106 95.4547C83.9349 95.3712 83.8779 95.2727 83.8432 95.1655C83.8086 95.0584 83.7971 94.9451 83.8096 94.8332C83.8355 94.5944 83.9474 94.3732 84.1245 94.211C84.3015 94.0487 84.5315 93.9563 84.7716 93.9512H88.5096C88.6222 93.9496 88.7339 93.972 88.8371 94.017C88.9404 94.0619 89.033 94.1282 89.1086 94.2116C89.1843 94.2951 89.2413 94.3936 89.276 94.5008C89.3106 94.6079 89.3221 94.7212 89.3096 94.8332C89.2836 95.0722 89.1714 95.2937 88.994 95.456C88.8166 95.6183 88.586 95.7105 88.3456 95.7151Z" fill="white"/>
<path opacity="0.5" d="M98.7617 100.487H84.1777C84.0651 100.488 83.9535 100.466 83.8502 100.421C83.7469 100.376 83.6544 100.31 83.5787 100.226C83.503 100.143 83.446 100.044 83.4113 99.9371C83.3767 99.8299 83.3652 99.7166 83.3777 99.6047C83.4036 99.3659 83.5155 99.1448 83.6926 98.9825C83.8696 98.8202 84.0996 98.7278 84.3397 98.7227H98.9237C99.0363 98.7211 99.148 98.7436 99.2512 98.7885C99.3545 98.8334 99.4471 98.8997 99.5227 98.9832C99.5984 99.0666 99.6554 99.1651 99.6901 99.2723C99.7247 99.3794 99.7362 99.4927 99.7237 99.6047C99.6978 99.8434 99.5859 100.065 99.4088 100.227C99.2318 100.389 99.0018 100.482 98.7617 100.487Z" fill="white"/>
<path opacity="0.5" d="M92.5841 105.257H83.7441C83.6315 105.259 83.5199 105.236 83.4166 105.191C83.3133 105.146 83.2208 105.08 83.1451 104.997C83.0694 104.913 83.0124 104.815 82.9777 104.708C82.9431 104.6 82.9316 104.487 82.9441 104.375C82.9698 104.136 83.0817 103.915 83.2587 103.753C83.4358 103.59 83.6659 103.498 83.9061 103.493H92.7451C92.8577 103.492 92.9694 103.514 93.0726 103.559C93.1759 103.604 93.2685 103.67 93.3441 103.754C93.4198 103.837 93.4768 103.936 93.5115 104.043C93.5461 104.15 93.5576 104.263 93.5451 104.375C93.5192 104.614 93.4074 104.835 93.2306 104.997C93.0538 105.159 92.824 105.252 92.5841 105.257Z" fill="white"/>
<path opacity="0.5" d="M97.8935 110.028H83.3095C83.1969 110.029 83.0853 110.007 82.982 109.962C82.8787 109.917 82.7862 109.851 82.7105 109.767C82.6349 109.684 82.5778 109.585 82.5432 109.478C82.5085 109.371 82.497 109.258 82.5095 109.146C82.5355 108.907 82.6474 108.686 82.8244 108.523C83.0014 108.361 83.2314 108.269 83.4715 108.264H98.0535C98.1662 108.262 98.2778 108.285 98.3811 108.329C98.4844 108.374 98.5769 108.441 98.6526 108.524C98.7282 108.608 98.7853 108.706 98.8199 108.813C98.8546 108.92 98.866 109.034 98.8535 109.146C98.8277 109.384 98.716 109.605 98.5394 109.767C98.3628 109.93 98.1333 110.022 97.8935 110.028Z" fill="white"/>
</g>
<path d="M125.604 71.6992L122.438 68.9482L120.954 74.0122C120.954 74.0122 124.17 75.7562 125.284 74.1552L125.604 71.6992Z" fill="#FFC3BD"/>
<path d="M118.989 68.7499L117.959 72.9939L120.951 74.0139L122.435 68.9489L118.989 68.7499Z" fill="#FFC3BD"/>
</svg>
